<svg xmlns="http://www.w3.org/2000/svg" viewBox="0 0 512 512">
  <defs>
    <linearGradient id="bg" x1="0%" y1="0%" x2="100%" y2="100%">
      <stop offset="0%" style="stop-color:#7c3aed"/>
      <stop offset="50%" style="stop-color:#db2777"/>
      <stop offset="100%" style="stop-color:#f59e0b"/>
    </linearGradient>
  </defs>
  <!-- Background circle with gradient -->
  <circle cx="256" cy="256" r="256" fill="url(#bg)"/>
  <!-- Piano body -->
  <rect x="96" y="140" width="320" height="232" rx="12" fill="#ffffff" opacity="0.95"/>
  <!-- White keys -->
  <rect x="112" y="156" width="40" height="200" rx="4" fill="#ffffff" stroke="#e5e7eb" stroke-width="2"/>
  <rect x="160" y="156" width="40" height="200" rx="4" fill="#ffffff" stroke="#e5e7eb" stroke-width="2"/>
  <rect x="208" y="156" width="40" height="200" rx="4" fill="#ffffff" stroke="#e5e7eb" stroke-width="2"/>
  <rect x="256" y="156" width="40" height="200" rx="4" fill="#ffffff" stroke="#e5e7eb" stroke-width="2"/>
  <rect x="304" y="156" width="40" height="200" rx="4" fill="#ffffff" stroke="#e5e7eb" stroke-width="2"/>
  <rect x="352" y="156" width="40" height="200" rx="4" fill="#ffffff" stroke="#e5e7eb" stroke-width="2"/>
  <!-- Black keys -->
  <rect x="140" y="156" width="28" height="128" rx="4" fill="#1a1a2e"/>
  <rect x="188" y="156" width="28" height="128" rx="4" fill="#1a1a2e"/>
  <rect x="284" y="156" width="28" height="128" rx="4" fill="#1a1a2e"/>
  <rect x="332" y="156" width="28" height="128" rx="4" fill="#1a1a2e"/>
  <rect x="380" y="156" width="28" height="128" rx="4" fill="#1a1a2e"/>
</svg>
